%
M48
M72
T01C0.0236
T02C0.0320
T03C0.0400
T04C0.0470
T05C0.1102
%
T01
X16313Y62206
X15813Y62706
X15313Y63206
X17313Y67206
X18313Y66706
X19313Y66206
X20313Y65706
X21313Y65206
X28813Y66206
X29313Y65706
X29813Y65206
X32813Y65206
X33313Y65706
X33813Y66206
T02
X31813Y61206
X30813Y61206
X28313Y61206
X27313Y61206
X26313Y61206
X25313Y61206
X24313Y61206
X23313Y61206
X22313Y61206
X21313Y61206
X20313Y61206
X19313Y61206
X18313Y61206
X17313Y61206
X17313Y64206
X18313Y64206
X19313Y64206
X20313Y64206
X21313Y64206
X22313Y64206
X23313Y64206
X24313Y64206
X25313Y64206
X26313Y64206
X27313Y64206
X28313Y64206
X27313Y59706
X27313Y55206
X28313Y55206
X26313Y55206
X25313Y55206
X24313Y55206
X23313Y55206
X22313Y55206
X21313Y55206
X20313Y55206
X19313Y55206
X18313Y55206
X17313Y55206
X17313Y52206
X18313Y52206
X19313Y52206
X20313Y52206
X21313Y52206
X22313Y52206
X23313Y52206
X24313Y52206
X25313Y52206
X26313Y52206
X27313Y52206
X28313Y52206
X27313Y50706
X27313Y46206
X28313Y46206
X26313Y46206
X25313Y46206
X24313Y46206
X23313Y46206
X22313Y46206
X21313Y46206
X20313Y46206
X19313Y46206
X18313Y46206
X17313Y46206
X17313Y43206
X18313Y43206
X19313Y43206
X20313Y43206
X21313Y43206
X22313Y43206
X23313Y43206
X24313Y43206
X25313Y43206
X26313Y43206
X27313Y43206
X28313Y43206
X27313Y41706
X30813Y43206
X31813Y43206
X33313Y41706
X35813Y42706
X36813Y42706
X37813Y42706
X38813Y42706
X39813Y42706
X40813Y42706
X41813Y42706
X42813Y42706
X43813Y42706
X44813Y42706
X45813Y42706
X46813Y42706
X46813Y45706
X45813Y45706
X44813Y45706
X43813Y45706
X42813Y45706
X41813Y45706
X40813Y45706
X39813Y45706
X38813Y45706
X37813Y45706
X36813Y45706
X35813Y45706
X36813Y47206
X33313Y45706
X32313Y45706
X30813Y47206
X33313Y50706
X31813Y52206
X30813Y52206
X32313Y54706
X33313Y54706
X35813Y54706
X36813Y54706
X37813Y54706
X38813Y54706
X39813Y54706
X40813Y54706
X41813Y54706
X42813Y54706
X43813Y54706
X44813Y54706
X45813Y54706
X46813Y54706
X46813Y51706
X45813Y51706
X44813Y51706
X43813Y51706
X42813Y51706
X41813Y51706
X40813Y51706
X39813Y51706
X38813Y51706
X37813Y51706
X36813Y51706
X35813Y51706
X36813Y56206
X38813Y56206
X38813Y57206
X38813Y58206
X38813Y59206
X38813Y60206
X38813Y61206
X38813Y62206
X38813Y63206
X38813Y64206
X38813Y65206
X41813Y65206
X41813Y64206
X41813Y63206
X41813Y62206
X41813Y61206
X41813Y60206
X41813Y59206
X41813Y58206
X41813Y57206
X41813Y56206
X33313Y59706
X30813Y56206
X30813Y38206
X32313Y36706
X33313Y36706
X31813Y34206
X30813Y34206
X28313Y34206
X27313Y34206
X26313Y34206
X25313Y34206
X24313Y34206
X23313Y34206
X22313Y34206
X21313Y34206
X20313Y34206
X19313Y34206
X18313Y34206
X17313Y34206
X17313Y37206
X18313Y37206
X19313Y37206
X20313Y37206
X21313Y37206
X22313Y37206
X23313Y37206
X24313Y37206
X25313Y37206
X26313Y37206
X27313Y37206
X28313Y37206
X27313Y32706
X27313Y28206
X28313Y28206
X26313Y28206
X25313Y28206
X24313Y28206
X23313Y28206
X22313Y28206
X21313Y28206
X20313Y28206
X19313Y28206
X18313Y28206
X17313Y28206
X17313Y25206
X18313Y25206
X19313Y25206
X20313Y25206
X21313Y25206
X22313Y25206
X23313Y25206
X24313Y25206
X25313Y25206
X26313Y25206
X27313Y25206
X28313Y25206
X27313Y23706
X27313Y19206
X28313Y19206
X26313Y19206
X25313Y19206
X24313Y19206
X23313Y19206
X22313Y19206
X21313Y19206
X20313Y19206
X19313Y19206
X18313Y19206
X17313Y19206
X17313Y16206
X18313Y16206
X19313Y16206
X20313Y16206
X21313Y16206
X22313Y16206
X23313Y16206
X24313Y16206
X25313Y16206
X26313Y16206
X27313Y16206
X28313Y16206
X27313Y14706
X27313Y10206
X28313Y10206
X26313Y10206
X25313Y10206
X24313Y10206
X23313Y10206
X22313Y10206
X21313Y10206
X20313Y10206
X19313Y10206
X18313Y10206
X17313Y10206
X17313Y7206
X18313Y7206
X19313Y7206
X20313Y7206
X21313Y7206
X22313Y7206
X23313Y7206
X24313Y7206
X25313Y7206
X26313Y7206
X27313Y7206
X28313Y7206
X27313Y5706
X30813Y7206
X31813Y7206
X33313Y5706
X35813Y6706
X36813Y6706
X37813Y6706
X38813Y6706
X39813Y6706
X40813Y6706
X41813Y6706
X42813Y6706
X43813Y6706
X44813Y6706
X45813Y6706
X46813Y6706
X46813Y9706
X45813Y9706
X44813Y9706
X43813Y9706
X42813Y9706
X41813Y9706
X40813Y9706
X39813Y9706
X38813Y9706
X37813Y9706
X36813Y9706
X35813Y9706
X36813Y11206
X33313Y9706
X32313Y9706
X30813Y11206
X33313Y14706
X31813Y16206
X30813Y16206
X32313Y18706
X33313Y18706
X35813Y18706
X36813Y18706
X37813Y18706
X38813Y18706
X39813Y18706
X40813Y18706
X41813Y18706
X42813Y18706
X43813Y18706
X44813Y18706
X45813Y18706
X46813Y18706
X46813Y15706
X45813Y15706
X44813Y15706
X43813Y15706
X42813Y15706
X41813Y15706
X40813Y15706
X39813Y15706
X38813Y15706
X37813Y15706
X36813Y15706
X35813Y15706
X36813Y20206
X36813Y24706
X37813Y24706
X38813Y24706
X39813Y24706
X40813Y24706
X41813Y24706
X42813Y24706
X43813Y24706
X44813Y24706
X45813Y24706
X46813Y24706
X46813Y27706
X45813Y27706
X44813Y27706
X43813Y27706
X42813Y27706
X41813Y27706
X40813Y27706
X39813Y27706
X38813Y27706
X37813Y27706
X36813Y27706
X35813Y27706
X36813Y29206
X36813Y33706
X37813Y33706
X38813Y33706
X39813Y33706
X40813Y33706
X41813Y33706
X42813Y33706
X43813Y33706
X44813Y33706
X45813Y33706
X46813Y33706
X46813Y36706
X45813Y36706
X44813Y36706
X43813Y36706
X42813Y36706
X41813Y36706
X40813Y36706
X39813Y36706
X38813Y36706
X37813Y36706
X36813Y36706
X35813Y36706
X36813Y38206
X35813Y33706
X33313Y32706
X30813Y29206
X32313Y27706
X33313Y27706
X31813Y25206
X30813Y25206
X33313Y23706
X35813Y24706
X30813Y20206
X13813Y19706
X13813Y17206
X11813Y17206
X13813Y14706
X13813Y12206
X11813Y12206
X13813Y9706
X13813Y7206
X11813Y7206
X13813Y4706
X7813Y4706
X7813Y9706
X7813Y14706
X7813Y19706
X11813Y22206
X13813Y22206
X13813Y24706
X13813Y27206
X11813Y27206
X13813Y29706
X13813Y32206
X11813Y32206
X13813Y34706
X13813Y37206
X11813Y37206
X13813Y39706
X13813Y42206
X11813Y42206
X13813Y44706
X13813Y45706
X13813Y46706
X13813Y47706
X13813Y48706
X13813Y49706
X13813Y50706
X13813Y51706
X7813Y51706
X7813Y50706
X7813Y49706
X7813Y48706
X7813Y47706
X7813Y46706
X7813Y45706
X7813Y44706
X7813Y39706
X7813Y34706
X7813Y29706
X7813Y24706
T03
X6313Y24706
X6313Y25706
X6313Y26706
X6313Y29706
X6313Y30706
X6313Y31706
X6313Y34706
X6313Y35706
X6313Y36706
X6313Y39706
X6313Y40706
X6313Y41706
X5813Y44706
X5813Y45706
X5813Y46706
X5813Y47706
X5813Y48706
X5813Y49706
X5813Y50706
X5813Y51706
X17313Y50206
X18313Y50206
X19313Y50206
X20313Y50206
X21313Y50206
X22313Y50206
X23313Y50206
X24313Y50206
X24313Y48206
X23313Y48206
X22313Y48206
X21313Y48206
X20313Y48206
X19313Y48206
X18313Y48206
X17313Y48206
X17313Y41206
X18313Y41206
X19313Y41206
X20313Y41206
X21313Y41206
X22313Y41206
X23313Y41206
X24313Y41206
X24313Y39206
X23313Y39206
X22313Y39206
X21313Y39206
X20313Y39206
X19313Y39206
X18313Y39206
X17313Y39206
X17313Y32206
X18313Y32206
X19313Y32206
X20313Y32206
X21313Y32206
X22313Y32206
X23313Y32206
X24313Y32206
X24313Y30206
X23313Y30206
X22313Y30206
X21313Y30206
X20313Y30206
X19313Y30206
X18313Y30206
X17313Y30206
X17313Y23206
X18313Y23206
X19313Y23206
X20313Y23206
X21313Y23206
X22313Y23206
X23313Y23206
X24313Y23206
X24313Y21206
X23313Y21206
X22313Y21206
X21313Y21206
X20313Y21206
X19313Y21206
X18313Y21206
X17313Y21206
X17313Y14206
X18313Y14206
X19313Y14206
X20313Y14206
X21313Y14206
X22313Y14206
X23313Y14206
X24313Y14206
X24313Y12206
X23313Y12206
X22313Y12206
X21313Y12206
X20313Y12206
X19313Y12206
X18313Y12206
X17313Y12206
X17313Y5206
X18313Y5206
X19313Y5206
X20313Y5206
X21313Y5206
X22313Y5206
X23313Y5206
X24313Y5206
X39813Y4706
X40813Y4706
X41813Y4706
X42813Y4706
X43813Y4706
X44813Y4706
X45813Y4706
X46813Y4706
X46813Y11706
X45813Y11706
X44813Y11706
X43813Y11706
X42813Y11706
X41813Y11706
X40813Y11706
X39813Y11706
X39813Y13706
X40813Y13706
X41813Y13706
X42813Y13706
X43813Y13706
X44813Y13706
X45813Y13706
X46813Y13706
X46813Y20706
X45813Y20706
X44813Y20706
X43813Y20706
X42813Y20706
X41813Y20706
X40813Y20706
X39813Y20706
X39813Y22706
X40813Y22706
X41813Y22706
X42813Y22706
X43813Y22706
X44813Y22706
X45813Y22706
X46813Y22706
X46813Y29706
X45813Y29706
X44813Y29706
X43813Y29706
X42813Y29706
X41813Y29706
X40813Y29706
X39813Y29706
X39813Y31706
X40813Y31706
X41813Y31706
X42813Y31706
X43813Y31706
X44813Y31706
X45813Y31706
X46813Y31706
X46813Y38706
X45813Y38706
X44813Y38706
X43813Y38706
X42813Y38706
X41813Y38706
X40813Y38706
X39813Y38706
X39813Y40706
X40813Y40706
X41813Y40706
X42813Y40706
X43813Y40706
X44813Y40706
X45813Y40706
X46813Y40706
X46813Y47706
X45813Y47706
X44813Y47706
X43813Y47706
X42813Y47706
X41813Y47706
X40813Y47706
X39813Y47706
X39813Y49706
X40813Y49706
X41813Y49706
X42813Y49706
X43813Y49706
X44813Y49706
X45813Y49706
X46813Y49706
X44313Y56706
X44313Y57706
X44313Y58706
X44313Y59706
X44313Y60706
X44313Y61706
X44313Y62706
X44313Y63706
X24313Y59206
X23313Y59206
X22313Y59206
X21313Y59206
X20313Y59206
X19313Y59206
X18313Y59206
X17313Y59206
X17313Y57206
X18313Y57206
X19313Y57206
X20313Y57206
X21313Y57206
X22313Y57206
X23313Y57206
X24313Y57206
X6313Y21706
X6313Y20706
X6313Y19706
X6313Y16706
X6313Y15706
X6313Y14706
X6313Y11706
X6313Y10706
X6313Y9706
X6313Y6706
X6313Y5706
X6313Y4706
T04
X44313Y65722
X44313Y67691
T05
X2569Y2569
X47844Y2569
X47844Y67923
X2569Y67923
M30
