G75*
G70*
%OFA0B0*%
%FSLAX24Y24*%
%IPPOS*%
%LPD*%
%AMOC8*
5,1,8,0,0,1.08239X$1,22.5*
%
%ADD10C,0.0600*%
%ADD11OC8,0.0710*%
%ADD12OC8,0.0600*%
%ADD13C,0.0680*%
%ADD14C,0.0830*%
%ADD15OC8,0.0830*%
%ADD16OC8,0.0780*%
%ADD17C,0.0785*%
%ADD18OC8,0.0476*%
%ADD19C,0.0476*%
%ADD20C,0.1582*%
D10*
X017313Y006946D02*
X017313Y007466D01*
X018313Y007466D02*
X018313Y006946D01*
X019313Y006946D02*
X019313Y007466D01*
X020313Y007466D02*
X020313Y006946D01*
X021313Y006946D02*
X021313Y007466D01*
X022313Y007466D02*
X022313Y006946D01*
X023313Y006946D02*
X023313Y007466D01*
X024313Y007466D02*
X024313Y006946D01*
X025313Y006946D02*
X025313Y007466D01*
X026313Y007466D02*
X026313Y006946D01*
X027313Y006946D02*
X027313Y007466D01*
X028313Y007466D02*
X028313Y006946D01*
X028313Y009946D02*
X028313Y010466D01*
X027313Y010466D02*
X027313Y009946D01*
X026313Y009946D02*
X026313Y010466D01*
X025313Y010466D02*
X025313Y009946D01*
X024313Y009946D02*
X024313Y010466D01*
X023313Y010466D02*
X023313Y009946D01*
X022313Y009946D02*
X022313Y010466D01*
X021313Y010466D02*
X021313Y009946D01*
X020313Y009946D02*
X020313Y010466D01*
X019313Y010466D02*
X019313Y009946D01*
X018313Y009946D02*
X018313Y010466D01*
X017313Y010466D02*
X017313Y009946D01*
X017313Y015946D02*
X017313Y016466D01*
X018313Y016466D02*
X018313Y015946D01*
X019313Y015946D02*
X019313Y016466D01*
X020313Y016466D02*
X020313Y015946D01*
X021313Y015946D02*
X021313Y016466D01*
X022313Y016466D02*
X022313Y015946D01*
X023313Y015946D02*
X023313Y016466D01*
X024313Y016466D02*
X024313Y015946D01*
X025313Y015946D02*
X025313Y016466D01*
X026313Y016466D02*
X026313Y015946D01*
X027313Y015946D02*
X027313Y016466D01*
X028313Y016466D02*
X028313Y015946D01*
X028313Y018946D02*
X028313Y019466D01*
X027313Y019466D02*
X027313Y018946D01*
X026313Y018946D02*
X026313Y019466D01*
X025313Y019466D02*
X025313Y018946D01*
X024313Y018946D02*
X024313Y019466D01*
X023313Y019466D02*
X023313Y018946D01*
X022313Y018946D02*
X022313Y019466D01*
X021313Y019466D02*
X021313Y018946D01*
X020313Y018946D02*
X020313Y019466D01*
X019313Y019466D02*
X019313Y018946D01*
X018313Y018946D02*
X018313Y019466D01*
X017313Y019466D02*
X017313Y018946D01*
X017313Y024946D02*
X017313Y025466D01*
X018313Y025466D02*
X018313Y024946D01*
X019313Y024946D02*
X019313Y025466D01*
X020313Y025466D02*
X020313Y024946D01*
X021313Y024946D02*
X021313Y025466D01*
X022313Y025466D02*
X022313Y024946D01*
X023313Y024946D02*
X023313Y025466D01*
X024313Y025466D02*
X024313Y024946D01*
X025313Y024946D02*
X025313Y025466D01*
X026313Y025466D02*
X026313Y024946D01*
X027313Y024946D02*
X027313Y025466D01*
X028313Y025466D02*
X028313Y024946D01*
X028313Y027946D02*
X028313Y028466D01*
X027313Y028466D02*
X027313Y027946D01*
X026313Y027946D02*
X026313Y028466D01*
X025313Y028466D02*
X025313Y027946D01*
X024313Y027946D02*
X024313Y028466D01*
X023313Y028466D02*
X023313Y027946D01*
X022313Y027946D02*
X022313Y028466D01*
X021313Y028466D02*
X021313Y027946D01*
X020313Y027946D02*
X020313Y028466D01*
X019313Y028466D02*
X019313Y027946D01*
X018313Y027946D02*
X018313Y028466D01*
X017313Y028466D02*
X017313Y027946D01*
X017313Y033946D02*
X017313Y034466D01*
X018313Y034466D02*
X018313Y033946D01*
X019313Y033946D02*
X019313Y034466D01*
X020313Y034466D02*
X020313Y033946D01*
X021313Y033946D02*
X021313Y034466D01*
X022313Y034466D02*
X022313Y033946D01*
X023313Y033946D02*
X023313Y034466D01*
X024313Y034466D02*
X024313Y033946D01*
X025313Y033946D02*
X025313Y034466D01*
X026313Y034466D02*
X026313Y033946D01*
X027313Y033946D02*
X027313Y034466D01*
X028313Y034466D02*
X028313Y033946D01*
X028313Y036946D02*
X028313Y037466D01*
X027313Y037466D02*
X027313Y036946D01*
X026313Y036946D02*
X026313Y037466D01*
X025313Y037466D02*
X025313Y036946D01*
X024313Y036946D02*
X024313Y037466D01*
X023313Y037466D02*
X023313Y036946D01*
X022313Y036946D02*
X022313Y037466D01*
X021313Y037466D02*
X021313Y036946D01*
X020313Y036946D02*
X020313Y037466D01*
X019313Y037466D02*
X019313Y036946D01*
X018313Y036946D02*
X018313Y037466D01*
X017313Y037466D02*
X017313Y036946D01*
X017313Y042946D02*
X017313Y043466D01*
X018313Y043466D02*
X018313Y042946D01*
X019313Y042946D02*
X019313Y043466D01*
X020313Y043466D02*
X020313Y042946D01*
X021313Y042946D02*
X021313Y043466D01*
X022313Y043466D02*
X022313Y042946D01*
X023313Y042946D02*
X023313Y043466D01*
X024313Y043466D02*
X024313Y042946D01*
X025313Y042946D02*
X025313Y043466D01*
X026313Y043466D02*
X026313Y042946D01*
X027313Y042946D02*
X027313Y043466D01*
X028313Y043466D02*
X028313Y042946D01*
X028313Y045946D02*
X028313Y046466D01*
X027313Y046466D02*
X027313Y045946D01*
X026313Y045946D02*
X026313Y046466D01*
X025313Y046466D02*
X025313Y045946D01*
X024313Y045946D02*
X024313Y046466D01*
X023313Y046466D02*
X023313Y045946D01*
X022313Y045946D02*
X022313Y046466D01*
X021313Y046466D02*
X021313Y045946D01*
X020313Y045946D02*
X020313Y046466D01*
X019313Y046466D02*
X019313Y045946D01*
X018313Y045946D02*
X018313Y046466D01*
X017313Y046466D02*
X017313Y045946D01*
X017313Y051946D02*
X017313Y052466D01*
X018313Y052466D02*
X018313Y051946D01*
X019313Y051946D02*
X019313Y052466D01*
X020313Y052466D02*
X020313Y051946D01*
X021313Y051946D02*
X021313Y052466D01*
X022313Y052466D02*
X022313Y051946D01*
X023313Y051946D02*
X023313Y052466D01*
X024313Y052466D02*
X024313Y051946D01*
X025313Y051946D02*
X025313Y052466D01*
X026313Y052466D02*
X026313Y051946D01*
X027313Y051946D02*
X027313Y052466D01*
X028313Y052466D02*
X028313Y051946D01*
X028313Y054946D02*
X028313Y055466D01*
X027313Y055466D02*
X027313Y054946D01*
X026313Y054946D02*
X026313Y055466D01*
X025313Y055466D02*
X025313Y054946D01*
X024313Y054946D02*
X024313Y055466D01*
X023313Y055466D02*
X023313Y054946D01*
X022313Y054946D02*
X022313Y055466D01*
X021313Y055466D02*
X021313Y054946D01*
X020313Y054946D02*
X020313Y055466D01*
X019313Y055466D02*
X019313Y054946D01*
X018313Y054946D02*
X018313Y055466D01*
X017313Y055466D02*
X017313Y054946D01*
X017313Y060946D02*
X017313Y061466D01*
X018313Y061466D02*
X018313Y060946D01*
X019313Y060946D02*
X019313Y061466D01*
X020313Y061466D02*
X020313Y060946D01*
X021313Y060946D02*
X021313Y061466D01*
X022313Y061466D02*
X022313Y060946D01*
X023313Y060946D02*
X023313Y061466D01*
X024313Y061466D02*
X024313Y060946D01*
X025313Y060946D02*
X025313Y061466D01*
X026313Y061466D02*
X026313Y060946D01*
X027313Y060946D02*
X027313Y061466D01*
X028313Y061466D02*
X028313Y060946D01*
X028313Y063946D02*
X028313Y064466D01*
X027313Y064466D02*
X027313Y063946D01*
X026313Y063946D02*
X026313Y064466D01*
X025313Y064466D02*
X025313Y063946D01*
X024313Y063946D02*
X024313Y064466D01*
X023313Y064466D02*
X023313Y063946D01*
X022313Y063946D02*
X022313Y064466D01*
X021313Y064466D02*
X021313Y063946D01*
X020313Y063946D02*
X020313Y064466D01*
X019313Y064466D02*
X019313Y063946D01*
X018313Y063946D02*
X018313Y064466D01*
X017313Y064466D02*
X017313Y063946D01*
X035813Y054966D02*
X035813Y054446D01*
X036813Y054446D02*
X036813Y054966D01*
X037813Y054966D02*
X037813Y054446D01*
X038813Y054446D02*
X038813Y054966D01*
X039813Y054966D02*
X039813Y054446D01*
X040813Y054446D02*
X040813Y054966D01*
X041813Y054966D02*
X041813Y054446D01*
X042813Y054446D02*
X042813Y054966D01*
X043813Y054966D02*
X043813Y054446D01*
X044813Y054446D02*
X044813Y054966D01*
X045813Y054966D02*
X045813Y054446D01*
X046813Y054446D02*
X046813Y054966D01*
X046813Y051966D02*
X046813Y051446D01*
X045813Y051446D02*
X045813Y051966D01*
X044813Y051966D02*
X044813Y051446D01*
X043813Y051446D02*
X043813Y051966D01*
X042813Y051966D02*
X042813Y051446D01*
X041813Y051446D02*
X041813Y051966D01*
X040813Y051966D02*
X040813Y051446D01*
X039813Y051446D02*
X039813Y051966D01*
X038813Y051966D02*
X038813Y051446D01*
X037813Y051446D02*
X037813Y051966D01*
X036813Y051966D02*
X036813Y051446D01*
X035813Y051446D02*
X035813Y051966D01*
X038553Y056206D02*
X039073Y056206D01*
X039073Y057206D02*
X038553Y057206D01*
X038553Y058206D02*
X039073Y058206D01*
X039073Y059206D02*
X038553Y059206D01*
X038553Y060206D02*
X039073Y060206D01*
X039073Y061206D02*
X038553Y061206D01*
X038553Y062206D02*
X039073Y062206D01*
X039073Y063206D02*
X038553Y063206D01*
X038553Y064206D02*
X039073Y064206D01*
X039073Y065206D02*
X038553Y065206D01*
X041553Y065206D02*
X042073Y065206D01*
X042073Y064206D02*
X041553Y064206D01*
X041553Y063206D02*
X042073Y063206D01*
X042073Y062206D02*
X041553Y062206D01*
X041553Y061206D02*
X042073Y061206D01*
X042073Y060206D02*
X041553Y060206D01*
X041553Y059206D02*
X042073Y059206D01*
X042073Y058206D02*
X041553Y058206D01*
X041553Y057206D02*
X042073Y057206D01*
X042073Y056206D02*
X041553Y056206D01*
X041813Y045966D02*
X041813Y045446D01*
X042813Y045446D02*
X042813Y045966D01*
X043813Y045966D02*
X043813Y045446D01*
X044813Y045446D02*
X044813Y045966D01*
X045813Y045966D02*
X045813Y045446D01*
X046813Y045446D02*
X046813Y045966D01*
X046813Y042966D02*
X046813Y042446D01*
X045813Y042446D02*
X045813Y042966D01*
X044813Y042966D02*
X044813Y042446D01*
X043813Y042446D02*
X043813Y042966D01*
X042813Y042966D02*
X042813Y042446D01*
X041813Y042446D02*
X041813Y042966D01*
X040813Y042966D02*
X040813Y042446D01*
X039813Y042446D02*
X039813Y042966D01*
X038813Y042966D02*
X038813Y042446D01*
X037813Y042446D02*
X037813Y042966D01*
X036813Y042966D02*
X036813Y042446D01*
X035813Y042446D02*
X035813Y042966D01*
X035813Y045446D02*
X035813Y045966D01*
X036813Y045966D02*
X036813Y045446D01*
X037813Y045446D02*
X037813Y045966D01*
X038813Y045966D02*
X038813Y045446D01*
X039813Y045446D02*
X039813Y045966D01*
X040813Y045966D02*
X040813Y045446D01*
X040813Y036966D02*
X040813Y036446D01*
X041813Y036446D02*
X041813Y036966D01*
X042813Y036966D02*
X042813Y036446D01*
X043813Y036446D02*
X043813Y036966D01*
X044813Y036966D02*
X044813Y036446D01*
X045813Y036446D02*
X045813Y036966D01*
X046813Y036966D02*
X046813Y036446D01*
X046813Y033966D02*
X046813Y033446D01*
X045813Y033446D02*
X045813Y033966D01*
X044813Y033966D02*
X044813Y033446D01*
X043813Y033446D02*
X043813Y033966D01*
X042813Y033966D02*
X042813Y033446D01*
X041813Y033446D02*
X041813Y033966D01*
X040813Y033966D02*
X040813Y033446D01*
X039813Y033446D02*
X039813Y033966D01*
X038813Y033966D02*
X038813Y033446D01*
X037813Y033446D02*
X037813Y033966D01*
X036813Y033966D02*
X036813Y033446D01*
X035813Y033446D02*
X035813Y033966D01*
X035813Y036446D02*
X035813Y036966D01*
X036813Y036966D02*
X036813Y036446D01*
X037813Y036446D02*
X037813Y036966D01*
X038813Y036966D02*
X038813Y036446D01*
X039813Y036446D02*
X039813Y036966D01*
X039813Y027966D02*
X039813Y027446D01*
X040813Y027446D02*
X040813Y027966D01*
X041813Y027966D02*
X041813Y027446D01*
X042813Y027446D02*
X042813Y027966D01*
X043813Y027966D02*
X043813Y027446D01*
X044813Y027446D02*
X044813Y027966D01*
X045813Y027966D02*
X045813Y027446D01*
X046813Y027446D02*
X046813Y027966D01*
X046813Y024966D02*
X046813Y024446D01*
X045813Y024446D02*
X045813Y024966D01*
X044813Y024966D02*
X044813Y024446D01*
X043813Y024446D02*
X043813Y024966D01*
X042813Y024966D02*
X042813Y024446D01*
X041813Y024446D02*
X041813Y024966D01*
X040813Y024966D02*
X040813Y024446D01*
X039813Y024446D02*
X039813Y024966D01*
X038813Y024966D02*
X038813Y024446D01*
X037813Y024446D02*
X037813Y024966D01*
X036813Y024966D02*
X036813Y024446D01*
X035813Y024446D02*
X035813Y024966D01*
X035813Y027446D02*
X035813Y027966D01*
X036813Y027966D02*
X036813Y027446D01*
X037813Y027446D02*
X037813Y027966D01*
X038813Y027966D02*
X038813Y027446D01*
X038813Y018966D02*
X038813Y018446D01*
X037813Y018446D02*
X037813Y018966D01*
X036813Y018966D02*
X036813Y018446D01*
X035813Y018446D02*
X035813Y018966D01*
X035813Y015966D02*
X035813Y015446D01*
X036813Y015446D02*
X036813Y015966D01*
X037813Y015966D02*
X037813Y015446D01*
X038813Y015446D02*
X038813Y015966D01*
X039813Y015966D02*
X039813Y015446D01*
X040813Y015446D02*
X040813Y015966D01*
X041813Y015966D02*
X041813Y015446D01*
X042813Y015446D02*
X042813Y015966D01*
X043813Y015966D02*
X043813Y015446D01*
X044813Y015446D02*
X044813Y015966D01*
X045813Y015966D02*
X045813Y015446D01*
X046813Y015446D02*
X046813Y015966D01*
X046813Y018446D02*
X046813Y018966D01*
X045813Y018966D02*
X045813Y018446D01*
X044813Y018446D02*
X044813Y018966D01*
X043813Y018966D02*
X043813Y018446D01*
X042813Y018446D02*
X042813Y018966D01*
X041813Y018966D02*
X041813Y018446D01*
X040813Y018446D02*
X040813Y018966D01*
X039813Y018966D02*
X039813Y018446D01*
X039813Y009966D02*
X039813Y009446D01*
X040813Y009446D02*
X040813Y009966D01*
X041813Y009966D02*
X041813Y009446D01*
X042813Y009446D02*
X042813Y009966D01*
X043813Y009966D02*
X043813Y009446D01*
X044813Y009446D02*
X044813Y009966D01*
X045813Y009966D02*
X045813Y009446D01*
X046813Y009446D02*
X046813Y009966D01*
X046813Y006966D02*
X046813Y006446D01*
X045813Y006446D02*
X045813Y006966D01*
X044813Y006966D02*
X044813Y006446D01*
X043813Y006446D02*
X043813Y006966D01*
X042813Y006966D02*
X042813Y006446D01*
X041813Y006446D02*
X041813Y006966D01*
X040813Y006966D02*
X040813Y006446D01*
X039813Y006446D02*
X039813Y006966D01*
X038813Y006966D02*
X038813Y006446D01*
X037813Y006446D02*
X037813Y006966D01*
X036813Y006966D02*
X036813Y006446D01*
X035813Y006446D02*
X035813Y006966D01*
X035813Y009446D02*
X035813Y009966D01*
X036813Y009966D02*
X036813Y009446D01*
X037813Y009446D02*
X037813Y009966D01*
X038813Y009966D02*
X038813Y009446D01*
D11*
X033313Y009706D03*
X032313Y009706D03*
X031813Y007206D03*
X030813Y007206D03*
X030813Y016206D03*
X031813Y016206D03*
X032313Y018706D03*
X033313Y018706D03*
X031813Y025206D03*
X030813Y025206D03*
X032313Y027706D03*
X033313Y027706D03*
X031813Y034206D03*
X030813Y034206D03*
X032313Y036706D03*
X033313Y036706D03*
X031813Y043206D03*
X030813Y043206D03*
X032313Y045706D03*
X033313Y045706D03*
X031813Y052206D03*
X030813Y052206D03*
X032313Y054706D03*
X033313Y054706D03*
X031813Y061206D03*
X030813Y061206D03*
D12*
X033313Y059706D03*
X030813Y056206D03*
X027313Y059706D03*
X027313Y050706D03*
X030813Y047206D03*
X033313Y050706D03*
X036813Y047206D03*
X033313Y041706D03*
X030813Y038206D03*
X027313Y041706D03*
X027313Y032706D03*
X030813Y029206D03*
X033313Y032706D03*
X036813Y029206D03*
X033313Y023706D03*
X030813Y020206D03*
X027313Y023706D03*
X027313Y014706D03*
X030813Y011206D03*
X033313Y014706D03*
X036813Y011206D03*
X033313Y005706D03*
X027313Y005706D03*
X036813Y020206D03*
X036813Y038206D03*
X036813Y056206D03*
X013813Y051706D03*
X013813Y050706D03*
X013813Y049706D03*
X013813Y048706D03*
X013813Y047706D03*
X013813Y046706D03*
X013813Y045706D03*
X013813Y044706D03*
X013813Y039706D03*
X013813Y034706D03*
X013813Y029706D03*
X013813Y024706D03*
X013813Y019706D03*
X013813Y014706D03*
X013813Y009706D03*
X013813Y004706D03*
X007813Y004706D03*
X007813Y009706D03*
X007813Y014706D03*
X007813Y019706D03*
X007813Y024706D03*
X007813Y029706D03*
X007813Y034706D03*
X007813Y039706D03*
X007813Y044706D03*
X007813Y045706D03*
X007813Y046706D03*
X007813Y047706D03*
X007813Y048706D03*
X007813Y049706D03*
X007813Y050706D03*
X007813Y051706D03*
D13*
X006613Y041706D02*
X006013Y041706D01*
X006013Y040706D02*
X006613Y040706D01*
X006613Y039706D02*
X006013Y039706D01*
X006013Y036706D02*
X006613Y036706D01*
X006613Y035706D02*
X006013Y035706D01*
X006013Y034706D02*
X006613Y034706D01*
X006613Y031706D02*
X006013Y031706D01*
X006013Y030706D02*
X006613Y030706D01*
X006613Y029706D02*
X006013Y029706D01*
X006013Y026706D02*
X006613Y026706D01*
X006613Y025706D02*
X006013Y025706D01*
X006013Y024706D02*
X006613Y024706D01*
X006613Y021706D02*
X006013Y021706D01*
X006013Y020706D02*
X006613Y020706D01*
X006613Y019706D02*
X006013Y019706D01*
X006013Y016706D02*
X006613Y016706D01*
X006613Y015706D02*
X006013Y015706D01*
X006013Y014706D02*
X006613Y014706D01*
X006613Y011706D02*
X006013Y011706D01*
X006013Y010706D02*
X006613Y010706D01*
X006613Y009706D02*
X006013Y009706D01*
X006013Y006706D02*
X006613Y006706D01*
X006613Y005706D02*
X006013Y005706D01*
X006013Y004706D02*
X006613Y004706D01*
D14*
X013813Y007206D03*
X013813Y012206D03*
X013813Y017206D03*
X013813Y022206D03*
X013813Y027206D03*
X013813Y032206D03*
X013813Y037206D03*
X013813Y042206D03*
D15*
X011813Y042206D03*
X011813Y037206D03*
X011813Y032206D03*
X011813Y027206D03*
X011813Y022206D03*
X011813Y017206D03*
X011813Y012206D03*
X011813Y007206D03*
D16*
X017313Y005206D03*
X018313Y005206D03*
X019313Y005206D03*
X020313Y005206D03*
X021313Y005206D03*
X022313Y005206D03*
X023313Y005206D03*
X024313Y005206D03*
X024313Y012206D03*
X023313Y012206D03*
X022313Y012206D03*
X021313Y012206D03*
X020313Y012206D03*
X019313Y012206D03*
X018313Y012206D03*
X017313Y012206D03*
X017313Y014206D03*
X018313Y014206D03*
X019313Y014206D03*
X020313Y014206D03*
X021313Y014206D03*
X022313Y014206D03*
X023313Y014206D03*
X024313Y014206D03*
X024313Y021206D03*
X023313Y021206D03*
X022313Y021206D03*
X021313Y021206D03*
X020313Y021206D03*
X019313Y021206D03*
X018313Y021206D03*
X017313Y021206D03*
X017313Y023206D03*
X018313Y023206D03*
X019313Y023206D03*
X020313Y023206D03*
X021313Y023206D03*
X022313Y023206D03*
X023313Y023206D03*
X024313Y023206D03*
X024313Y030206D03*
X023313Y030206D03*
X022313Y030206D03*
X021313Y030206D03*
X020313Y030206D03*
X019313Y030206D03*
X018313Y030206D03*
X017313Y030206D03*
X017313Y032206D03*
X018313Y032206D03*
X019313Y032206D03*
X020313Y032206D03*
X021313Y032206D03*
X022313Y032206D03*
X023313Y032206D03*
X024313Y032206D03*
X024313Y039206D03*
X023313Y039206D03*
X022313Y039206D03*
X021313Y039206D03*
X020313Y039206D03*
X019313Y039206D03*
X018313Y039206D03*
X017313Y039206D03*
X017313Y041206D03*
X018313Y041206D03*
X019313Y041206D03*
X020313Y041206D03*
X021313Y041206D03*
X022313Y041206D03*
X023313Y041206D03*
X024313Y041206D03*
X024313Y048206D03*
X023313Y048206D03*
X022313Y048206D03*
X021313Y048206D03*
X020313Y048206D03*
X019313Y048206D03*
X018313Y048206D03*
X017313Y048206D03*
X017313Y050206D03*
X018313Y050206D03*
X019313Y050206D03*
X020313Y050206D03*
X021313Y050206D03*
X022313Y050206D03*
X023313Y050206D03*
X024313Y050206D03*
X024313Y057206D03*
X023313Y057206D03*
X022313Y057206D03*
X021313Y057206D03*
X020313Y057206D03*
X019313Y057206D03*
X018313Y057206D03*
X017313Y057206D03*
X017313Y059206D03*
X018313Y059206D03*
X019313Y059206D03*
X020313Y059206D03*
X021313Y059206D03*
X022313Y059206D03*
X023313Y059206D03*
X024313Y059206D03*
X039813Y049706D03*
X040813Y049706D03*
X041813Y049706D03*
X042813Y049706D03*
X043813Y049706D03*
X044813Y049706D03*
X045813Y049706D03*
X046813Y049706D03*
X046813Y047706D03*
X045813Y047706D03*
X044813Y047706D03*
X043813Y047706D03*
X042813Y047706D03*
X041813Y047706D03*
X040813Y047706D03*
X039813Y047706D03*
X039813Y040706D03*
X040813Y040706D03*
X041813Y040706D03*
X042813Y040706D03*
X043813Y040706D03*
X044813Y040706D03*
X045813Y040706D03*
X046813Y040706D03*
X046813Y038706D03*
X045813Y038706D03*
X044813Y038706D03*
X043813Y038706D03*
X042813Y038706D03*
X041813Y038706D03*
X040813Y038706D03*
X039813Y038706D03*
X039813Y031706D03*
X040813Y031706D03*
X041813Y031706D03*
X042813Y031706D03*
X043813Y031706D03*
X044813Y031706D03*
X045813Y031706D03*
X046813Y031706D03*
X046813Y029706D03*
X045813Y029706D03*
X044813Y029706D03*
X043813Y029706D03*
X042813Y029706D03*
X041813Y029706D03*
X040813Y029706D03*
X039813Y029706D03*
X039813Y022706D03*
X040813Y022706D03*
X041813Y022706D03*
X042813Y022706D03*
X043813Y022706D03*
X044813Y022706D03*
X045813Y022706D03*
X046813Y022706D03*
X046813Y020706D03*
X045813Y020706D03*
X044813Y020706D03*
X043813Y020706D03*
X042813Y020706D03*
X041813Y020706D03*
X040813Y020706D03*
X039813Y020706D03*
X039813Y013706D03*
X040813Y013706D03*
X041813Y013706D03*
X042813Y013706D03*
X043813Y013706D03*
X044813Y013706D03*
X045813Y013706D03*
X046813Y013706D03*
X046813Y011706D03*
X045813Y011706D03*
X044813Y011706D03*
X043813Y011706D03*
X042813Y011706D03*
X041813Y011706D03*
X040813Y011706D03*
X039813Y011706D03*
X039813Y004706D03*
X040813Y004706D03*
X041813Y004706D03*
X042813Y004706D03*
X043813Y004706D03*
X044813Y004706D03*
X045813Y004706D03*
X046813Y004706D03*
X044313Y056706D03*
X044313Y057706D03*
X044313Y058706D03*
X044313Y059706D03*
X044313Y060706D03*
X044313Y061706D03*
X044313Y062706D03*
X044313Y063706D03*
X005813Y051706D03*
X005813Y050706D03*
X005813Y049706D03*
X005813Y048706D03*
X005813Y047706D03*
X005813Y046706D03*
X005813Y045706D03*
X005813Y044706D03*
D17*
X043960Y065722D02*
X044665Y065722D01*
X044665Y067691D02*
X043960Y067691D01*
D18*
X033813Y066206D03*
X033313Y065706D03*
X032813Y065206D03*
X029813Y065206D03*
X029313Y065706D03*
X028813Y066206D03*
X020313Y065706D03*
X019313Y066206D03*
X018313Y066706D03*
X017313Y067206D03*
D19*
X015313Y063206D03*
X015813Y062706D03*
X016313Y062206D03*
X021313Y065206D03*
D20*
X002569Y002569D03*
X047844Y002569D03*
X047844Y067923D03*
X002569Y067923D03*
M02*
